# xmcd
# 
# Track frame offsets:
#     150
#     17518
#     36517
#     55175
#     76338
#     98479
#     116169
#     133540
#     152217
#     171218
#     192381
#     214491
#     232181
#     250285
#     268359
#     298007
# 
# Disc length: 4247
# 
# Revision: 0
# Processed by: cddbd v1.5.2PL0 Copyright (c) Steve Scherf et al.
# Submitted via: fre:ac v1.1beta1pre4
# 
DISCID=f1109510
DTITLE=Various Artist - 名探偵コナン主題歌集4
DYEAR=2002
DGENRE=Anime
TTITLE0=上原あずみ - 青い青いこの地球に
TTITLE1=松橋未樹 - destiny
TTITLE2=倉木麻衣 - always
TTITLE3=倉木麻衣 - 冷たい海
TTITLE4=愛内里菜 - 恋はスリル、ショック、サスペンス
TTITLE5=GARNET CROW - 夏の幻
TTITLE6=instrumental - 青い青いこの地球に
TTITLE7=instrumental - destiny
TTITLE8=instrumental - always
TTITLE9=instrumental - 冷たい海
TTITLE10=instrumental - 恋はスリル、ショック、サスペンス
TTITLE11=instrumental - 夏の幻
TTITLE12=上原あずみ - 青い青いこの地球に~Short Ver. Little boy blue mix~
TTITLE13=上原あずみ - 青い青いこの地球に~Long ver. Remix~
TTITLE14=松橋未樹 - destiny~A Rainbow In Air Mix~
TTITLE15=愛内里菜 - 恋はスリル、ショック、サスペンス~KH R Jr STARLIGHT MIX Ver. S~
EXTD=
EXTT0=
EXTT1=
EXTT2=
EXTT3=
EXTT4=
EXTT5=
EXTT6=
EXTT7=
EXTT8=
EXTT9=
EXTT10=
EXTT11=
EXTT12=
EXTT13=
EXTT14=
EXTT15=
PLAYORDER=
